<mxfile host="app.diagrams.net" modified="2022-06-01T06:33:10.742Z" agent="5.0 (Macintosh; Intel Mac OS X 10_15_7) AppleWebKit/537.36 (KHTML, like Gecko) Chrome/100.0.4896.75 Safari/537.36" etag="CEgfnDjtx3PjQACa3Iox" version="17.4.1" type="github">
  <diagram name="Page-1" id="13e1069c-82ec-6db2-03f1-153e76fe0fe0">
    <mxGraphModel dx="1298" dy="699" grid="1" gridSize="10" guides="1" tooltips="1" connect="1" arrows="1" fold="1" page="1" pageScale="1" pageWidth="1100" pageHeight="850" background="none" math="0" shadow="0">
      <root>
        <mxCell id="0" />
        <mxCell id="1" parent="0" />
        <mxCell id="7baba1c4bc27f4b0-3" value=":SceneService" style="shape=umlLifeline;perimeter=lifelinePerimeter;whiteSpace=wrap;html=1;container=1;collapsible=0;recursiveResize=0;outlineConnect=0;rounded=1;shadow=0;comic=0;labelBackgroundColor=none;strokeWidth=1;fontFamily=Verdana;fontSize=12;align=center;" parent="1" vertex="1">
          <mxGeometry x="300" y="80" width="100" height="630" as="geometry" />
        </mxCell>
        <mxCell id="7baba1c4bc27f4b0-13" value="" style="html=1;points=[];perimeter=orthogonalPerimeter;rounded=0;shadow=0;comic=0;labelBackgroundColor=none;strokeWidth=1;fontFamily=Verdana;fontSize=12;align=center;" parent="7baba1c4bc27f4b0-3" vertex="1">
          <mxGeometry x="45" y="320" width="10" height="310" as="geometry" />
        </mxCell>
        <mxCell id="S0LsM8EeW1_96Y5W6TbT-2" value="" style="html=1;points=[];perimeter=orthogonalPerimeter;rounded=0;shadow=0;comic=0;labelBackgroundColor=none;strokeWidth=1;fontFamily=Verdana;fontSize=12;align=center;" parent="7baba1c4bc27f4b0-3" vertex="1">
          <mxGeometry x="45" y="70" width="10" height="250" as="geometry" />
        </mxCell>
        <mxCell id="7baba1c4bc27f4b0-4" value="&lt;font style=&quot;font-size: 16px&quot;&gt;:&lt;font style=&quot;font-size: 16px&quot;&gt;AbstractSceneFactory&lt;/font&gt;&lt;/font&gt;" style="shape=umlLifeline;perimeter=lifelinePerimeter;whiteSpace=wrap;html=1;container=1;collapsible=0;recursiveResize=0;outlineConnect=0;rounded=1;shadow=0;comic=0;labelBackgroundColor=none;strokeWidth=1;fontFamily=Verdana;fontSize=12;align=center;" parent="1" vertex="1">
          <mxGeometry x="480" y="80" width="180" height="580" as="geometry" />
        </mxCell>
        <mxCell id="MwoZQrEEX3wXvgg_QEE5-21" value="" style="html=1;points=[];perimeter=orthogonalPerimeter;rounded=0;shadow=0;comic=0;labelBackgroundColor=none;strokeWidth=1;fontFamily=Verdana;fontSize=12;align=center;" parent="7baba1c4bc27f4b0-4" vertex="1">
          <mxGeometry x="85" y="170" width="10" height="70" as="geometry" />
        </mxCell>
        <mxCell id="-cc4x9fc0v7E6pRzVXcU-1" value="return" style="html=1;verticalAlign=bottom;endArrow=open;dashed=1;endSize=8;labelBackgroundColor=none;fontFamily=Verdana;fontSize=12;edgeStyle=elbowEdgeStyle;elbow=vertical;exitX=0.5;exitY=0.968;exitDx=0;exitDy=0;exitPerimeter=0;" parent="7baba1c4bc27f4b0-4" target="7baba1c4bc27f4b0-3" edge="1">
          <mxGeometry x="0.1996" relative="1" as="geometry">
            <mxPoint x="49.5" y="120" as="targetPoint" />
            <Array as="points">
              <mxPoint x="170" y="120" />
            </Array>
            <mxPoint x="250" y="120.07999999999993" as="sourcePoint" />
            <mxPoint as="offset" />
          </mxGeometry>
        </mxCell>
        <mxCell id="7baba1c4bc27f4b0-5" value=":Mysql" style="shape=umlLifeline;perimeter=lifelinePerimeter;whiteSpace=wrap;html=1;container=1;collapsible=0;recursiveResize=0;outlineConnect=0;rounded=1;shadow=0;comic=0;labelBackgroundColor=none;strokeWidth=1;fontFamily=Verdana;fontSize=12;align=center;" parent="1" vertex="1">
          <mxGeometry x="680" y="80" width="110" height="580" as="geometry" />
        </mxCell>
        <mxCell id="MwoZQrEEX3wXvgg_QEE5-17" value="" style="html=1;points=[];perimeter=orthogonalPerimeter;rounded=0;shadow=0;comic=0;labelBackgroundColor=none;strokeWidth=1;fontFamily=Verdana;fontSize=12;align=center;" parent="7baba1c4bc27f4b0-5" vertex="1">
          <mxGeometry x="50" y="550" width="10" height="20" as="geometry" />
        </mxCell>
        <mxCell id="S0LsM8EeW1_96Y5W6TbT-4" value="" style="html=1;points=[];perimeter=orthogonalPerimeter;rounded=0;shadow=0;comic=0;labelBackgroundColor=none;strokeWidth=1;fontFamily=Verdana;fontSize=12;align=center;" parent="7baba1c4bc27f4b0-5" vertex="1">
          <mxGeometry x="50" y="80" width="10" height="40" as="geometry" />
        </mxCell>
        <mxCell id="7baba1c4bc27f4b0-8" value=":SiteService" style="shape=umlLifeline;perimeter=lifelinePerimeter;whiteSpace=wrap;html=1;container=1;collapsible=0;recursiveResize=0;outlineConnect=0;rounded=1;shadow=0;comic=0;labelBackgroundColor=none;strokeWidth=1;fontFamily=Verdana;fontSize=12;align=center;" parent="1" vertex="1">
          <mxGeometry x="100" y="80" width="100" height="660" as="geometry" />
        </mxCell>
        <mxCell id="7baba1c4bc27f4b0-9" value="" style="html=1;points=[];perimeter=orthogonalPerimeter;rounded=0;shadow=0;comic=0;labelBackgroundColor=none;strokeWidth=1;fontFamily=Verdana;fontSize=12;align=center;" parent="7baba1c4bc27f4b0-8" vertex="1">
          <mxGeometry x="45" y="60" width="10" height="600" as="geometry" />
        </mxCell>
        <mxCell id="MwoZQrEEX3wXvgg_QEE5-8" value="" style="html=1;points=[];perimeter=orthogonalPerimeter;rounded=0;shadow=0;comic=0;labelBackgroundColor=none;strokeWidth=1;fontFamily=Verdana;fontSize=12;align=center;" parent="7baba1c4bc27f4b0-8" vertex="1">
          <mxGeometry x="55" y="450" width="10" height="40" as="geometry" />
        </mxCell>
        <mxCell id="EWG5V0WhLsDsO41iQh-F-1" value="" style="html=1;points=[];perimeter=orthogonalPerimeter;rounded=0;shadow=0;comic=0;labelBackgroundColor=none;strokeWidth=1;fontFamily=Verdana;fontSize=12;align=center;" parent="7baba1c4bc27f4b0-8" vertex="1">
          <mxGeometry x="55" y="383" width="10" height="40" as="geometry" />
        </mxCell>
        <mxCell id="EWG5V0WhLsDsO41iQh-F-3" value="" style="html=1;points=[];perimeter=orthogonalPerimeter;rounded=0;shadow=0;comic=0;labelBackgroundColor=none;strokeWidth=1;fontFamily=Verdana;fontSize=12;align=center;" parent="7baba1c4bc27f4b0-8" vertex="1">
          <mxGeometry x="55" y="313" width="10" height="40" as="geometry" />
        </mxCell>
        <mxCell id="7baba1c4bc27f4b0-40" value="Note" style="shape=note;whiteSpace=wrap;html=1;size=14;verticalAlign=top;align=left;spacingTop=-6;rounded=0;shadow=0;comic=0;labelBackgroundColor=none;strokeWidth=1;fontFamily=Verdana;fontSize=12" parent="1" vertex="1">
          <mxGeometry x="100" y="30" width="100" height="35" as="geometry" />
        </mxCell>
        <mxCell id="7baba1c4bc27f4b0-42" value="Note" style="shape=note;whiteSpace=wrap;html=1;size=14;verticalAlign=top;align=left;spacingTop=-6;rounded=0;shadow=0;comic=0;labelBackgroundColor=none;strokeWidth=1;fontFamily=Verdana;fontSize=12" parent="1" vertex="1">
          <mxGeometry x="300" y="30" width="100" height="35" as="geometry" />
        </mxCell>
        <mxCell id="7baba1c4bc27f4b0-43" value="解析" style="shape=note;whiteSpace=wrap;html=1;size=14;verticalAlign=top;align=left;spacingTop=-6;rounded=0;shadow=0;comic=0;labelBackgroundColor=none;strokeWidth=1;fontFamily=Verdana;fontSize=12" parent="1" vertex="1">
          <mxGeometry x="540" y="30" width="100" height="35" as="geometry" />
        </mxCell>
        <mxCell id="7baba1c4bc27f4b0-44" value="Note" style="shape=note;whiteSpace=wrap;html=1;size=14;verticalAlign=top;align=left;spacingTop=-6;rounded=0;shadow=0;comic=0;labelBackgroundColor=none;strokeWidth=1;fontFamily=Verdana;fontSize=12" parent="1" vertex="1">
          <mxGeometry x="680" y="30" width="100" height="35" as="geometry" />
        </mxCell>
        <mxCell id="EWG5V0WhLsDsO41iQh-F-2" value="命名惟一性查检查" style="html=1;verticalAlign=bottom;endArrow=block;labelBackgroundColor=none;fontFamily=Verdana;fontSize=12;elbow=vertical;edgeStyle=orthogonalEdgeStyle;curved=1;" parent="1" edge="1">
          <mxGeometry x="0.2319" relative="1" as="geometry">
            <mxPoint x="160" y="449" as="sourcePoint" />
            <mxPoint x="170" y="484" as="targetPoint" />
            <Array as="points">
              <mxPoint x="160" y="446" />
              <mxPoint x="215" y="446" />
              <mxPoint x="215" y="484" />
            </Array>
            <mxPoint as="offset" />
          </mxGeometry>
        </mxCell>
        <mxCell id="S0LsM8EeW1_96Y5W6TbT-1" value="loadScene" style="html=1;verticalAlign=bottom;endArrow=block;labelBackgroundColor=none;fontFamily=Verdana;fontSize=12;exitX=1.6;exitY=0.571;exitDx=0;exitDy=0;exitPerimeter=0;" parent="1" edge="1">
          <mxGeometry x="0.1907" relative="1" as="geometry">
            <mxPoint x="160" y="160" as="sourcePoint" />
            <mxPoint as="offset" />
            <mxPoint x="344" y="160" as="targetPoint" />
          </mxGeometry>
        </mxCell>
        <mxCell id="S0LsM8EeW1_96Y5W6TbT-3" style="edgeStyle=orthogonalEdgeStyle;rounded=0;orthogonalLoop=1;jettySize=auto;html=1;fontSize=16;" parent="1" edge="1">
          <mxGeometry relative="1" as="geometry">
            <mxPoint x="360" y="160" as="sourcePoint" />
            <mxPoint x="732" y="160" as="targetPoint" />
            <Array as="points">
              <mxPoint x="360" y="160" />
              <mxPoint x="732" y="160" />
            </Array>
          </mxGeometry>
        </mxCell>
        <mxCell id="S0LsM8EeW1_96Y5W6TbT-7" value="load" style="edgeLabel;html=1;align=center;verticalAlign=middle;resizable=0;points=[];fontSize=16;" parent="S0LsM8EeW1_96Y5W6TbT-3" vertex="1" connectable="0">
          <mxGeometry x="-0.2581" y="-1" relative="1" as="geometry">
            <mxPoint as="offset" />
          </mxGeometry>
        </mxCell>
        <mxCell id="S0LsM8EeW1_96Y5W6TbT-15" style="edgeStyle=orthogonalEdgeStyle;rounded=0;orthogonalLoop=1;jettySize=auto;html=1;entryX=-0.3;entryY=0.4;entryDx=0;entryDy=0;entryPerimeter=0;fontSize=16;" parent="1" target="MwoZQrEEX3wXvgg_QEE5-21" edge="1">
          <mxGeometry relative="1" as="geometry">
            <mxPoint x="360" y="278" as="sourcePoint" />
          </mxGeometry>
        </mxCell>
        <mxCell id="S0LsM8EeW1_96Y5W6TbT-16" value="composeScene" style="edgeLabel;html=1;align=center;verticalAlign=middle;resizable=0;points=[];fontSize=16;" parent="S0LsM8EeW1_96Y5W6TbT-15" vertex="1" connectable="0">
          <mxGeometry x="0.1584" y="-2" relative="1" as="geometry">
            <mxPoint as="offset" />
          </mxGeometry>
        </mxCell>
        <mxCell id="S0LsM8EeW1_96Y5W6TbT-18" value="return" style="html=1;verticalAlign=bottom;endArrow=open;dashed=1;endSize=8;labelBackgroundColor=none;fontFamily=Verdana;fontSize=12;edgeStyle=elbowEdgeStyle;elbow=vertical;exitX=-0.1;exitY=0.714;exitDx=0;exitDy=0;exitPerimeter=0;" parent="1" source="MwoZQrEEX3wXvgg_QEE5-21" edge="1">
          <mxGeometry x="0.1996" relative="1" as="geometry">
            <mxPoint x="350" y="300" as="targetPoint" />
            <Array as="points">
              <mxPoint x="530" y="300" />
            </Array>
            <mxPoint x="725" y="260" as="sourcePoint" />
            <mxPoint as="offset" />
          </mxGeometry>
        </mxCell>
        <mxCell id="S0LsM8EeW1_96Y5W6TbT-19" value="return" style="html=1;verticalAlign=bottom;endArrow=open;dashed=1;endSize=8;labelBackgroundColor=none;fontFamily=Verdana;fontSize=12;edgeStyle=elbowEdgeStyle;elbow=vertical;exitX=-0.1;exitY=0.714;exitDx=0;exitDy=0;exitPerimeter=0;" parent="1" edge="1">
          <mxGeometry x="0.1996" relative="1" as="geometry">
            <mxPoint x="150" y="320" as="targetPoint" />
            <Array as="points">
              <mxPoint x="310" y="320.02" />
            </Array>
            <mxPoint x="344" y="320" as="sourcePoint" />
            <mxPoint as="offset" />
          </mxGeometry>
        </mxCell>
        <mxCell id="S0LsM8EeW1_96Y5W6TbT-20" value="saveTopo" style="html=1;verticalAlign=bottom;endArrow=block;labelBackgroundColor=none;fontFamily=Verdana;fontSize=12;exitX=1.6;exitY=0.571;exitDx=0;exitDy=0;exitPerimeter=0;" parent="1" edge="1">
          <mxGeometry x="0.087" relative="1" as="geometry">
            <mxPoint x="160" y="630" as="sourcePoint" />
            <mxPoint as="offset" />
            <mxPoint x="344" y="630" as="targetPoint" />
          </mxGeometry>
        </mxCell>
        <mxCell id="S0LsM8EeW1_96Y5W6TbT-21" style="edgeStyle=orthogonalEdgeStyle;rounded=0;orthogonalLoop=1;jettySize=auto;html=1;fontSize=16;" parent="1" edge="1">
          <mxGeometry relative="1" as="geometry">
            <mxPoint x="360" y="640" as="sourcePoint" />
            <mxPoint x="730" y="640" as="targetPoint" />
            <Array as="points">
              <mxPoint x="360" y="640" />
              <mxPoint x="731" y="640" />
            </Array>
          </mxGeometry>
        </mxCell>
        <mxCell id="S0LsM8EeW1_96Y5W6TbT-22" value="save" style="edgeLabel;html=1;align=center;verticalAlign=middle;resizable=0;points=[];fontSize=16;" parent="S0LsM8EeW1_96Y5W6TbT-21" vertex="1" connectable="0">
          <mxGeometry x="-0.0566" relative="1" as="geometry">
            <mxPoint y="-12" as="offset" />
          </mxGeometry>
        </mxCell>
        <mxCell id="S0LsM8EeW1_96Y5W6TbT-25" value="return" style="html=1;verticalAlign=bottom;endArrow=open;dashed=1;endSize=8;labelBackgroundColor=none;fontFamily=Verdana;fontSize=12;edgeStyle=elbowEdgeStyle;elbow=vertical;" parent="1" target="7baba1c4bc27f4b0-8" edge="1">
          <mxGeometry x="0.1996" relative="1" as="geometry">
            <mxPoint x="190" y="570" as="targetPoint" />
            <Array as="points">
              <mxPoint x="260" y="650" />
              <mxPoint x="270" y="700" />
            </Array>
            <mxPoint x="350" y="650" as="sourcePoint" />
            <mxPoint as="offset" />
          </mxGeometry>
        </mxCell>
        <mxCell id="-cc4x9fc0v7E6pRzVXcU-5" value="如果是插入，确定目标楼层存在" style="html=1;verticalAlign=bottom;endArrow=block;labelBackgroundColor=none;fontFamily=Verdana;fontSize=12;elbow=vertical;edgeStyle=orthogonalEdgeStyle;curved=1;exitX=1.038;exitY=0.345;exitPerimeter=0;" parent="1" edge="1">
          <mxGeometry x="0.0861" y="10" relative="1" as="geometry">
            <mxPoint x="165.00333333333356" y="523" as="sourcePoint" />
            <mxPoint x="175" y="561" as="targetPoint" />
            <Array as="points">
              <mxPoint x="220" y="523" />
              <mxPoint x="220" y="561" />
              <mxPoint x="175" y="561" />
            </Array>
            <mxPoint as="offset" />
          </mxGeometry>
        </mxCell>
        <mxCell id="KwXQi0kn8Qg1HXRH5JCs-1" value="&lt;span style=&quot;color: rgba(0 , 0 , 0 , 0) ; font-family: monospace ; font-size: 0px&quot;&gt;%3CmxGraphModel%3E%3Croot%3E%3CmxCell%20id%3D%220%22%2F%3E%3CmxCell%20id%3D%221%22%20parent%3D%220%22%2F%3E%3CmxCell%20id%3D%222%22%20value%3D%22%E5%91%BD%E5%90%8D%E6%83%9F%E4%B8%80%E6%80%A7%E6%9F%A5%E6%A3%80%E6%9F%A5%22%20style%3D%22html%3D1%3BverticalAlign%3Dbottom%3BendArrow%3Dblock%3BlabelBackgroundColor%3Dnone%3BfontFamily%3DVerdana%3BfontSize%3D12%3Belbow%3Dvertical%3BedgeStyle%3DorthogonalEdgeStyle%3Bcurved%3D1%3B%22%20edge%3D%221%22%20parent%3D%221%22%3E%3CmxGeometry%20x%3D%220.2319%22%20relative%3D%221%22%20as%3D%22geometry%22%3E%3CmxPoint%20x%3D%22160%22%20y%3D%22449%22%20as%3D%22sourcePoint%22%2F%3E%3CmxPoint%20x%3D%22170%22%20y%3D%22484%22%20as%3D%22targetPoint%22%2F%3E%3CArray%20as%3D%22points%22%3E%3CmxPoint%20x%3D%22160%22%20y%3D%22446%22%2F%3E%3CmxPoint%20x%3D%22215%22%20y%3D%22446%22%2F%3E%3CmxPoint%20x%3D%22215%22%20y%3D%22484%22%2F%3E%3C%2FArray%3E%3CmxPoint%20as%3D%22offset%22%2F%3E%3C%2FmxGeometry%3E%3C%2FmxCell%3E%3C%2Froot%3E%3C%2FmxGraphModel%3Es&lt;/span&gt;" style="html=1;verticalAlign=bottom;endArrow=block;labelBackgroundColor=none;fontFamily=Verdana;fontSize=12;elbow=vertical;edgeStyle=orthogonalEdgeStyle;curved=1;" parent="1" edge="1">
          <mxGeometry x="0.2319" relative="1" as="geometry">
            <mxPoint x="160" y="373" as="sourcePoint" />
            <mxPoint x="170" y="408" as="targetPoint" />
            <Array as="points">
              <mxPoint x="160" y="370" />
              <mxPoint x="215" y="370" />
              <mxPoint x="215" y="408" />
            </Array>
            <mxPoint as="offset" />
          </mxGeometry>
        </mxCell>
        <mxCell id="KwXQi0kn8Qg1HXRH5JCs-2" value="可编辑性检查" style="edgeLabel;html=1;align=center;verticalAlign=middle;resizable=0;points=[];" parent="KwXQi0kn8Qg1HXRH5JCs-1" vertex="1" connectable="0">
          <mxGeometry x="0.0638" y="-1" relative="1" as="geometry">
            <mxPoint as="offset" />
          </mxGeometry>
        </mxCell>
      </root>
    </mxGraphModel>
  </diagram>
</mxfile>
